<?xml version="1.0" encoding="UTF-8"?>
<svg width="26px" height="28px" viewBox="0 0 26 28" version="1.1" xmlns="http://www.w3.org/2000/svg" xmlns:xlink="http://www.w3.org/1999/xlink">
    <!-- Generator: Sketch 47 (45396) - http://www.bohemiancoding.com/sketch -->
    <title>logo-black-small</title>
    <desc>Created with Sketch.</desc>
    <defs></defs>
    <g id="Page-1" stroke="none" stroke-width="1" fill="none" fill-rule="evenodd">
        <g id="logo-black-small" fill-rule="nonzero" fill="#292A2A">
            <path d="M9.97759784,6.52317638 C10.023146,5.36233572 10.2675059,3.82473112 11.014127,2.91527866 C12.066044,1.6443364 14.2000383,1.84862916 14.5508825,3.68344452 C14.7183029,4.57825914 14.4893309,5.67609364 14.0929386,6.44489594 C13.2552211,8.1231507 11.699812,9.50355812 9.94682205,9.97451322 C9.96220995,8.9237743 9.94743757,7.55864102 9.97759784,6.52317638 M24.2760369,22.7443961 C23.3915403,23.7957714 22.2639148,24.6110329 21.181222,24.5639373 C19.9618845,24.5174783 20.0837568,22.963963 20.0837568,22.0856954 L20.0837568,18.3988811 C20.0991447,17.6930848 20.0991447,16.9872886 20.0228207,16.2967666 C19.8246245,14.2417479 18.6508353,12.594678 16.4405169,12.4374809 C12.5996965,12.2802837 11.075063,16.0931105 9.94743757,19.2300531 L9.94743757,12.3592006 C13.3007694,11.8258757 17.9497625,9.89623278 18.0870225,5.50362218 C18.3159945,-1.96419762 6.04506555,-2.23022352 6.09061372,7.1666028 C6.10600161,7.88830952 6.10600161,9.26871708 6.10600161,9.9904238 C4.45949605,9.73903574 3.13367436,7.26079382 2.52369794,5.7855588 C2.44737384,5.58190262 2.23440524,5.47243732 2.03620916,5.53480718 C-0.265821126,6.14704874 -0.600661853,8.64120124 0.954131853,10.3353666 C2.23440524,11.7316847 4.27668773,12.2650095 6.07522582,12.3592006 C6.06045344,17.8025501 6.06045344,21.1603323 6.06045344,26.5877713 C6.1367774,27.3565736 7.15791864,27.5608662 7.75250717,27.5761405 C8.42280414,27.5920511 9.67291739,27.3883949 9.73385345,26.4942167 C9.94743757,23.8269563 12.1571403,15.951824 15.1602435,15.951824 C15.8613163,15.951824 16.1967725,16.4221425 16.1967725,17.1126645 L16.1967725,23.5291091 C16.1967725,26.1957329 17.6604699,27.9840894 20.3275012,28 C22.6904675,28 24.7635257,25.9920767 25.8000548,23.6856698 C26.1201231,22.9486887 24.7487533,22.1951607 24.2760369,22.7443961" id="logo_honey"></path>
        </g>
    </g>
</svg>